<?xml version="1.0" standalone="no"?>
<!DOCTYPE svg PUBLIC "-//W3C//DTD SVG 20010904//EN"
 "http://www.w3.org/TR/2001/REC-SVG-20010904/DTD/svg10.dtd">
<svg version="1.0" xmlns="http://www.w3.org/2000/svg"
 width="1280.000000pt" height="640.000000pt" viewBox="0 0 1280.000000 640.000000"
 preserveAspectRatio="xMidYMid meet">
<metadata>
Created by potrace 1.15, written by Peter Selinger 2001-2017
</metadata>
<g transform="translate(0.000000,640.000000) scale(0.100000,-0.100000)"
fill="#a00e0e" stroke="none">
<path d="M5370 6070 c-1127 -7 -1463 -12 -2005 -30 -304 -10 -820 -23 -1665
-41 l-505 -10 -155 -66 c-205 -86 -621 -269 -814 -358 -54 -24 -96 -37 -128
-37 -47 -1 -70 -18 -25 -18 18 -1 15 -5 -18 -23 l-40 -22 9 -98 9 -99 326 3
326 3 15 -76 14 -77 43 -16 c55 -21 133 -107 181 -199 l37 -71 5 -674 5 -673
113 -2 112 -3 0 897 0 897 293 7 c1697 37 3004 46 6763 46 l3561 0 7 -432 c3
-238 6 -653 6 -923 l-1 -490 110 0 111 0 2 670 3 670 40 80 c47 92 132 186
186 204 l36 12 18 104 18 105 194 0 c177 0 193 1 193 18 -1 9 -6 61 -14 114
-15 114 2 93 -250 313 -82 72 -194 169 -249 218 l-100 87 -2821 -2 c-1552 -1
-3327 -5 -3946 -8z m-4250 -1529 c5 -11 10 -49 10 -85 0 -56 -3 -67 -22 -80
-28 -20 -33 -20 -52 0 -20 19 -23 153 -4 172 18 18 56 14 68 -7z m10849 -7
l31 -6 0 -69 c0 -48 -5 -72 -16 -83 -19 -20 -24 -20 -52 0 -19 13 -22 24 -22
83 0 85 1 86 59 75z m-10849 -263 c17 -32 13 -142 -7 -163 -20 -22 -37 -23
-57 -2 -20 19 -23 153 -4 172 18 18 56 14 68 -7z m10868 7 c19 -19 16 -153 -4
-172 -19 -20 -24 -20 -52 0 -19 13 -22 24 -22 80 0 36 5 74 10 85 12 21 50 25
68 7z m-10870 -270 c16 -16 16 -150 0 -166 -7 -7 -21 -12 -33 -12 -36 0 -45
20 -45 95 0 75 9 95 45 95 12 0 26 -5 33 -12z m10870 0 c7 -7 12 -41 12 -83 0
-75 -9 -95 -45 -95 -12 0 -26 5 -33 12 -15 15 -16 132 -2 159 12 21 50 25 68
7z m-10874 -274 c12 -11 16 -35 16 -84 0 -49 -4 -73 -16 -84 -18 -19 -45 -21
-62 -4 -16 16 -16 160 0 176 17 17 44 15 62 -4z m10874 4 c7 -7 12 -42 12 -88
0 -78 -9 -100 -41 -100 -35 0 -49 28 -49 100 0 49 4 73 16 84 18 19 45 21 62
4z"/>
</g>
</svg>
